<svg fill="none" height="38" viewBox="0 0 104 38" width="104" xmlns="http://www.w3.org/2000/svg" xmlns:xlink="http://www.w3.org/1999/xlink"><linearGradient id="a" gradientUnits="userSpaceOnUse" x1="4.28556" x2="33.5072" y1="10.1356" y2="9.14634"><stop offset=".02" stop-color="#00ccc0" stop-opacity=".2"/><stop offset=".17" stop-color="#00cbba" stop-opacity=".22"/><stop offset=".33" stop-color="#00cbab" stop-opacity=".28"/><stop offset=".48" stop-color="#00ca92" stop-opacity=".39"/><stop offset=".64" stop-color="#00c96f" stop-opacity=".54"/><stop offset=".8" stop-color="#00c842" stop-opacity=".72"/><stop offset=".96" stop-color="#00c60c" stop-opacity=".95"/><stop offset=".99" stop-color="#00c601"/></linearGradient><linearGradient id="b" gradientUnits="userSpaceOnUse" x1="9.87549" x2="4.3517" y1="17.9507" y2="33.0908"><stop offset="0" stop-color="#00625d" stop-opacity="0"/><stop offset=".28" stop-color="#00863a" stop-opacity=".38"/><stop offset=".56" stop-color="#00a61a" stop-opacity=".71"/><stop offset=".76" stop-color="#00ba07" stop-opacity=".92"/><stop offset=".86" stop-color="#00c200"/></linearGradient><linearGradient id="c" gradientUnits="userSpaceOnUse" x1="17.9073" x2="29.4851" y1="11.4296" y2="36.8876"><stop offset="0" stop-color="#00c2c4" stop-opacity="0"/><stop offset=".08" stop-color="#00c2b7" stop-opacity=".06"/><stop offset=".21" stop-color="#00c297" stop-opacity=".23"/><stop offset=".4" stop-color="#00c262" stop-opacity=".5"/><stop offset=".62" stop-color="#00c219" stop-opacity=".87"/><stop offset=".69" stop-color="#00c200"/></linearGradient><path d="m15.6032 19.0016-15.6032-9.26125 15.6027-9.24035 15.627 9.25078z" fill="#00cbc0"/><path d="m12.4959 8.90315c-.1705-.28653-.4475-.54177-.8039-.75283-.9208-.54524-2.51319-.48911-3.49896.13556-.9253.58649-.9808 1.46344-.10853 1.97992l-1.22167.723c-1.50023-.8879-1.36738-2.4119.29637-3.39662.97586-.57752 2.26491-.8432 3.46679-.78511l.0015.001s0 0 0-.0005h.0014l-.0014-.001c-.0982-.71158.3508-1.47434 1.3262-2.05186 1.6638-.98469 4.2375-1.06316 5.7377-.17527l-1.2217.72301c-.8718-.51596-2.3531-.48368-3.3444.06456-1.0556.58349-1.1503 1.52597-.2289 2.07123.3563.21103.7875.3754 1.2717.47621 1.4715.3064 3.2636.0715 4.5472-.67933 1.7396-1.01797 1.8655-2.61894.3058-3.5421l-3.4192-2.02404-4.4209 2.61696-1.82676 1.08157-.57936.34312h-.00097l-.57937.34365-1.82681 1.08153-4.42083 2.61697 3.41918 2.02412c1.5597.9231 4.26422.8486 5.98352-.1808 1.2687-.7598 1.6652-1.82047 1.1478-2.69195z" fill="#000"/><path d="m18.7095 10.5968c.1705.2866.4476.5418.8039.7528.9208.5453 2.5132.4892 3.499-.1355.9253-.5865.9808-1.46344.1085-1.9799l1.2217-.72301c1.5002.88788 1.3674 2.41191-.2964 3.39661-.9758.5775-2.2649.8432-3.4667.7851l-.0015-.001v.0005s-.001 0-.0015 0l.0015.001c.0981.7116-.3509 1.4743-1.3263 2.0518-1.6638.9848-4.2374 1.0632-5.7376.1753l1.2216-.723c.8718.5159 2.3532.4837 3.3444-.0645 1.0556-.5835 1.1503-1.526.229-2.0713-.3564-.211-.7876-.3754-1.2718-.4762-1.4714-.3064-3.2635-.0715-4.5472.6793-1.7395 1.018-1.8654 2.619-.3057 3.5421l3.4192 2.0241 4.4208-2.617 1.8268-1.0815.5794-.3432h.0009l.5794-.3436 1.8268-1.0816 4.4208-2.61694-3.4192-2.02405c-1.5596-.92313-4.2642-.84866-5.9834.18075-1.2688.75976-1.6653 1.82046-1.1479 2.69194z" fill="#000"/><path d="m15.6038 10.8432-1.8481-1.09401 1.8481-1.09398 1.8481 1.09398z" fill="#000"/><path d="m15.6275 37.5-15.6275-9.2508v-18.50152l15.6275 9.25122z" fill="#016062"/><path d="m5.55329 23.2716c-.32711-.3794-.68145-.6799-1.03779-.8914-.92086-.5453-1.66972.0099-1.63502 1.239.03271 1.1535.74589 2.4853 1.61767 3.0018v1.4465c-1.50022-.8879-2.7209-3.2128-2.7209-5.1823 0-1.155.42028-1.9351 1.07002-2.2038l.00149.001s0-.0005-.0005-.001h.0005l-.00149-.001c-.65024-1.0378-1.07002-2.3155-1.07002-3.4706 0-1.9694 1.22068-2.8494 2.7209-1.961v1.4466c-.87178-.516-1.58496-.0288-1.61767 1.0865-.0347 1.1878.71366 2.6294 1.63502 3.1746.35634.2111.71068.3297 1.03779.3377.99468.0238 1.69202-.8586 1.69943-2.3652.00991-2.0415-1.27914-4.4802-2.83884-5.4038l-3.41919-2.024v5.2339 2.1626.6858.0015.6857 2.1626 5.234l3.41919 2.024c1.5597.9232 2.84925.0115 2.83884-2.0424-.00741-1.5151-.70525-3.2238-1.69943-4.3773z" fill="#000"/><path d="m10.0822 23.9752c.3271.3794.6814.6798 1.0378.8913.9208.5453 1.6697-.0099 1.635-1.2389-.0327-1.1536-.7459-2.4854-1.6177-3.0018v-1.4466c1.5002.8879 2.7209 3.2129 2.7209 5.1823 0 1.155-.4203 1.9352-1.07 2.2038l-.0015-.001s0 .0005.0005.001c0 0 0 0-.0005 0l.0015.001c.6502 1.0379 1.07 2.3156 1.07 3.4706 0 1.9694-1.2207 2.8494-2.7209 1.961v-1.4465c.8718.5159 1.585.0288 1.6177-1.0865.0347-1.1879-.7137-2.6294-1.635-3.1747-.3564-.211-.7107-.3297-1.0378-.3376-.9947-.0239-1.69204.8585-1.69945 2.3652-.00991 2.0414 1.27915 4.4801 2.83885 5.4038l3.4192 2.024v-5.234-2.1626-.6857-.0015-.6858-2.1626-5.2339l-3.4192-2.0241c-1.5597-.9232-2.84926-.0114-2.83885 2.0424.00741 1.5151.70525 3.2238 1.69945 4.3774z" fill="#000"/><path d="m8.74293 25.2619-1.84809-1.094v-2.1884l1.84809 1.0944z" fill="#000"/><path d="m31.2446 28.2492-15.627 9.2508v-18.5011l15.627-9.25122z" fill="#00bfc7"/><path d="m21.1709 25.9547c-.3271.0079-.6815.1266-1.0378.3377-.9209.5452-1.6698 1.9868-1.6351 3.1746.0328 1.1148.7459 1.6025 1.6177 1.0865v1.4466c-1.5002.8878-2.7209.0084-2.7209-1.9611 0-1.155.4203-2.4327 1.07-3.4706l.0015-.0009s0 0-.0005 0c0 0 0-.0005.0005-.001l-.0015.001c-.6502-.2687-1.07-1.0488-1.07-2.2039 0-1.9694 1.2207-4.2944 2.7209-5.1823v1.4466c-.8718.5159-1.5849 1.8478-1.6177 3.0018-.0347 1.229.7137 1.7842 1.6351 1.239.3563-.2111.7107-.5115 1.0378-.8914.9946-1.1536 1.692-2.8623 1.6994-4.3774.0099-2.0538-1.2792-2.9655-2.8388-2.0424l-3.4193 2.0241v5.2339 2.1626.6858.0015.6858 2.1626 5.234l3.4193-2.024c1.5596-.9234 2.8492-3.362 2.8388-5.4039-.0074-1.5066-.7053-2.389-1.6994-2.3652z" fill="#000"/><path d="m21.1624 25.9554c-.3271.0079-.6814.1266-1.0378.3377-.9208.5452-1.6697 1.9868-1.635 3.1746.0327 1.1148.7459 1.6025 1.6177 1.0865v1.4466c-1.5002.8878-2.7209.0084-2.7209-1.9611 0-1.155.4203-2.4327 1.07-3.4706l.0015-.0009s0 0-.0005 0c0 0 0-.0005.0005-.001l-.0015.001c-.6502-.2687-1.07-1.0488-1.07-2.2039 0-1.9694 1.2207-4.2944 2.7209-5.1823v1.4466c-.8718.5159-1.585 1.8478-1.6177 3.0018-.0347 1.229.7137 1.7842 1.635 1.239.3564-.2111.7107-.5115 1.0378-.8914.9947-1.1536 1.6921-2.8623 1.6995-4.3774.0099-2.0538-1.2792-2.9655-2.8389-2.0424l-3.4192 2.0241v5.2339 2.1626.6858.0015.6858 2.1626 5.234l3.4192-2.024c1.5597-.9234 2.8493-3.362 2.8389-5.4039-.0074-1.5066-.7053-2.389-1.6995-2.3652z" fill="#000" opacity=".81"/><path d="m25.6997 21.292c.3271-.0079.6815-.1266 1.0378-.3376.9209-.5453 1.6698-1.9868 1.635-3.1746-.0327-1.1149-.7458-1.6025-1.6176-1.0866v-1.4465c1.5002-.8879 2.7209-.0085 2.7209 1.961 0 1.155-.4203 2.4327-1.0701 3.4706l-.0015.001h.0005s0 .0005-.0005.001l.0015-.001c.6503.2686 1.0701 1.0488 1.0701 2.2038 0 1.9694-1.2207 4.2944-2.7209 5.1823v-1.4465c.8718-.516 1.5849-1.8478 1.6176-3.0018.0348-1.2291-.7136-1.7843-1.635-1.239-.3563.211-.7107.5114-1.0378.8913-.9946 1.1536-1.692 2.8623-1.6994 4.3774-.0099 2.0538 1.2791 2.9656 2.8388 2.0424l3.4192-2.0241v-5.2339-2.1626-.6858-.0015-.6857-2.1626-5.234l-3.4192 2.0241c-1.5597.9231-2.8492 3.3618-2.8388 5.4038.0074 1.5066.7053 2.389 1.6994 2.3651z" fill="#000"/><path d="m24.361 24.1679-1.8485 1.094v-2.188l1.8485-1.0944z" fill="#000"/><path d="m15.6047 19.0016-15.5536136-9.26125 15.5532136-9.24035 15.627 9.25078z" fill="url(#a)"/><path d="m15.6275 37.5-15.6275-9.2508v-18.50152l15.6275 9.25122z" fill="url(#b)"/><path d="m31.2446 28.2492-15.627 9.2508v-18.5011l15.627-9.25122z" fill="url(#c)"/><g fill="#000" opacity=".25"><path d="m12.5036 8.90336c-.1704-.28652-.4475-.54177-.8038-.75283-.9208-.54523-2.51324-.48911-3.49901.13556-.9253.58649-.9808 1.46344-.10853 1.97991l-1.22167.723c-1.50023-.8879-1.36738-2.41188.29638-3.39661.97585-.57752 2.26491-.8432 3.46673-.78511l.0015.00101s0-.00001 0-.0005h.0015l-.0015-.001c-.0981-.71158.3509-1.47435 1.3263-2.05186 1.6637-.9847 4.2374-1.06317 5.7376-.17528l-1.2216.72301c-.8718-.51595-2.3532-.48367-3.3444.06456-1.0556.58349-1.1503 1.52597-.229 2.07124.3564.21102.7875.3754 1.2717.47621 1.4715.30639 3.2636.07149 4.5472-.67933 1.7396-1.01798 1.8655-2.61894.3058-3.54211l-3.4192-2.02404-4.4208 2.61697-1.8268 1.08157-.57937.34311h-.00097l-.57937.34365-1.8268 1.08154-4.42084 2.61697 3.41918 2.0241c1.5597.9231 4.26422.8486 5.98347-.1808 1.2688-.7598 1.6653-1.82046 1.1478-2.69194z"/><path d="m18.7087 10.597c.1705.2866.4476.5418.8039.7528.9208.5453 2.5132.4892 3.499-.1355.9253-.5865.9808-1.46343.1085-1.97988l1.2217-.72302c1.5002.88789 1.3674 2.4119-.2964 3.3966-.9758.5775-2.2649.8432-3.4667.7851l-.0015-.001v.0005s-.001 0-.0015 0l.0015.001c.0981.7116-.3509 1.4743-1.3263 2.0518-1.6637.9848-4.2374 1.0632-5.7376.1754l1.2216-.7231c.8718.516 2.3532.4837 3.3444-.0645 1.0556-.5835 1.1503-1.526.229-2.0713-.3564-.211-.7876-.3754-1.2718-.4762-1.4714-.3064-3.2635-.0715-4.5472.6793-1.7395 1.018-1.8654 2.619-.3057 3.5421l3.4192 2.0241 4.4208-2.617 1.8268-1.0815.5794-.3432h.0009l.5794-.3436 1.8268-1.0816 4.4208-2.61693-3.4191-2.02404c-1.5597-.92314-4.2643-.84867-5.9835.18074-1.2688.75977-1.6653 1.82046-1.1479 2.69193z"/><path d="m15.6116 10.8434-1.8481-1.09397 1.8481-1.09397 1.8481 1.09397z"/></g><g fill="#000" opacity=".25"><path d="m5.54231 23.2704c-.32711-.3794-.68145-.6798-1.0378-.8913-.92086-.5453-1.66971.0099-1.63502 1.2389.03271 1.1536.7459 2.4854 1.61767 3.0018v1.4466c-1.50021-.8879-2.72089-3.2129-2.72089-5.1823 0-1.1551.42027-1.9352 1.07001-2.2038l.00149.001s0-.0005-.00049-.001h.00049l-.00149-.001c-.65023-1.0379-1.07001-2.3156-1.07001-3.4707 0-1.9694 1.22068-2.8493 2.72089-1.9609v1.4465c-.87177-.5159-1.58496-.0288-1.61767 1.0865-.03469 1.1878.71366 2.6294 1.63502 3.1746.35635.2111.71069.3298 1.0378.3377.99468.0239 1.69201-.8586 1.69942-2.3652.00992-2.0414-1.27914-4.4801-2.83883-5.4038l-3.419196-2.024v5.2339 2.1626.6858.0015.6858 2.1626 5.2339l3.419196 2.0241c1.55969.9231 2.84925.0114 2.83883-2.0425-.00741-1.515-.70524-3.2238-1.69942-4.3773z"/><path d="m10.0711 23.974c.3271.3794.6815.6798 1.0378.8914.9209.5452 1.6697-.01 1.635-1.239-.0327-1.1535-.7458-2.4854-1.6176-3.0018v-1.4465c1.5002.8878 2.7209 3.2128 2.7209 5.1822 0 1.1551-.4203 1.9352-1.0701 2.2039l-.0014-.001s0 .0005.0004.001c0 0 0 0-.0004 0l.0014.001c.6503 1.0378 1.0701 2.3155 1.0701 3.4705 0 1.9695-1.2207 2.8494-2.7209 1.961v-1.4465c.8718.516 1.5849.0288 1.6176-1.0865.0347-1.1878-.7136-2.6294-1.635-3.1746-.3563-.2111-.7107-.3298-1.0378-.3377-.99465-.0238-1.69198.8586-1.69939 2.3652-.00992 2.0414 1.27914 4.4801 2.83879 5.4038l3.4192 2.0241v-5.234-2.1626-.6858-.0015-.6858-2.1626-5.2339l-3.4192-2.0241c-1.55965-.9231-2.84921-.0114-2.83879 2.0425.00741 1.515.70524 3.2237 1.69939 4.3773z"/><path d="m8.73195 25.2607-1.8481-1.0939v-2.1885l1.8481 1.0945z"/></g><g fill="#000" opacity=".25"><path d="m21.1516 25.9529c-.3271.0079-.6814.1266-1.0378.3377-.9208.5452-1.6697 1.9868-1.635 3.1746.0327 1.1148.7459 1.6025 1.6177 1.0865v1.4466c-1.5002.8878-2.7209.0084-2.7209-1.9611 0-1.155.4203-2.4327 1.07-3.4706l.0015-.0009s0 0-.0005 0c0 0 0-.0005.0005-.001l-.0015.001c-.6502-.2687-1.07-1.0488-1.07-2.2039 0-1.9694 1.2207-4.2944 2.7209-5.1823v1.4466c-.8718.5159-1.585 1.8478-1.6177 3.0018-.0347 1.229.7137 1.7842 1.635 1.239.3564-.2111.7107-.5115 1.0378-.8914.9947-1.1536 1.6921-2.8623 1.6995-4.3774.0099-2.0538-1.2792-2.9655-2.8389-2.0424l-3.4192 2.0241v5.2339 2.1626.6858.0015.6858 2.1626 5.234l3.4192-2.024c1.5597-.9234 2.8493-3.362 2.8389-5.4039-.0074-1.5066-.7053-2.389-1.6995-2.3652z"/><path d="m21.1504 25.9508c-.3271.008-.6814.1266-1.0378.3377-.9208.5452-1.6697 1.9868-1.635 3.1746.0327 1.1148.7459 1.6025 1.6177 1.0865v1.4466c-1.5002.8878-2.7209.0085-2.7209-1.961 0-1.1551.4202-2.4328 1.07-3.4706l.0015-.001s0 0-.0005 0c0 0 0-.0005.0005-.001l-.0015.001c-.6503-.2687-1.07-1.0488-1.07-2.2038 0-1.9695 1.2207-4.2945 2.7209-5.1823v1.4465c-.8718.5159-1.585 1.8478-1.6177 3.0018-.0347 1.2291.7137 1.7842 1.635 1.239.3564-.2111.7107-.5115 1.0378-.8914.9947-1.1535 1.692-2.8623 1.6994-4.3773.01-2.0539-1.2791-2.9656-2.8388-2.0425l-3.4192 2.0241v5.2339 2.1626.6858.0015.6858 2.1626 5.234l3.4192-2.024c1.5597-.9234 2.8493-3.362 2.8388-5.4039-.0074-1.5066-.7052-2.389-1.6994-2.3652z" opacity=".81"/><path d="m25.6889 21.2902c.3271-.0079.6814-.1266 1.0378-.3376.9208-.5453 1.6697-1.9868 1.635-3.1746-.0327-1.1149-.7459-1.6025-1.6177-1.0866v-1.4465c1.5002-.8879 2.7209-.0085 2.7209 1.961 0 1.155-.4203 2.4327-1.07 3.4706l-.0015.001h.0005s0 .0005-.0005.001l.0015-.001c.6502.2686 1.07 1.0488 1.07 2.2038 0 1.9694-1.2207 4.2944-2.7209 5.1823v-1.4465c.8718-.516 1.585-1.8478 1.6177-3.0018.0347-1.2291-.7137-1.7843-1.635-1.239-.3564.211-.7107.5114-1.0378.8913-.9947 1.1536-1.692 2.8623-1.6995 4.3774-.0099 2.0538 1.2792 2.9656 2.8389 2.0424l3.4192-2.0241v-5.2339-2.1626-.6858-.0015-.6857-2.1626-5.234l-3.4192 2.0241c-1.5597.9231-2.8493 3.3618-2.8389 5.4037.0075 1.5067.7053 2.3891 1.6995 2.3652z"/><path d="m24.3502 24.1661-1.8486 1.094v-2.188l1.8486-1.0944z"/></g><g fill="#fff"><path d="m92.8912 16.8132v-12.17767h4.2807c1.0295 0 1.87.14986 2.5216.44958.6645.28668 1.1535.69717 1.4655 1.23145.313.53427.47 1.15326.47 1.85694 0 .48216-.111.95128-.333 1.40737-.208.44303-.508.83403-.899 1.17283s-.8534.5864-1.3877.7428l2.9907 5.3167h-2.1502l-2.8342-5.1604h-2.1307v5.1604zm1.9937-6.8023h2.4434c.7819 0 1.3552-.16289 1.7201-.48867.3779-.32578.5669-.76232.5669-1.30963 0-.35185-.0847-.6646-.2541-.93825-.1564-.28669-.404-.50822-.7428-.66459-.3388-.16941-.7754-.25411-1.3096-.25411h-2.4239z"/><path d="m88.9611 13.7261h-5.219l.3909-1.4465h4.4371zm-2.502-5.5122-3.108 8.6006h-1.9742l4.7108-12.3145h.7428l4.7107 12.3145h-2.0328z"/><path d="m78.218 13.7261h-5.219l.3909-1.4465h4.4371zm-2.502-5.5122-3.108 8.6006h-1.9742l4.7108-12.3145h.7428l4.7107 12.3145h-2.0328z"/><path d="m60.532 15.5427 6.4505-9.24569h-6.1963v-1.66148h8.6006v1.27054l-6.3528 9.26523h5.8054c.2216 0 .3779-.0131.4692-.0391.0912-.0261.1759-.0782.2541-.1564h.1563v.1955 1.6419h-9.187z"/><path d="m56.7241 13.7261h-5.219l.3909-1.4465h4.4371zm-2.502-5.5122-3.108 8.6006h-1.9742l4.7108-12.3145h.7428l4.7107 12.3145h-2.0328z"/><path d="m39 16.8132v-12.17767h3.968c.8079 0 1.4986.07167 2.072.21501.5733.14335 1.049.35185 1.4269.6255.3779.26063.6581.57989.8405.9578.1824.3779.2737.78838.2737 1.23145 0 .36487-.0717.72974-.2151 1.09462-.1433.35184-.3583.66459-.645.93824-.2867.27366-.632.48215-1.036.62555.3519.1172.6776.2801.9774.4886.2997.2085.5538.4496.7623.7233.2215.2606.3909.5473.5082.86.1173.2997.1759.6125.1759.9383 0 .5342-.1042 1.0164-.3127 1.4464-.1955.4301-.5082.7949-.9383 1.0946-.417.2998-.9513.5343-1.6028.7037-.6385.1564-1.4074.2346-2.3065.2346zm1.9547-1.6224h2.2479c.5864 0 1.0946-.0651 1.5246-.1955.43-.1433.7558-.3583.9774-.645.2345-.2867.3518-.6516.3518-1.0946 0-.417-.1108-.7819-.3323-1.0946-.2085-.3258-.5473-.5799-1.0164-.7624-.4692-.1824-1.0947-.2736-1.8765-.2736h-1.8765zm0-5.62947h1.7983c.7037 0 1.264-.07167 1.681-.21502.417-.14334.7167-.34533.8992-.60595.1824-.26062.2736-.55383.2736-.87961 0-.24759-.0521-.46912-.1564-.66459-.1042-.19547-.2606-.36487-.4691-.50822-.2085-.14334-.4756-.2541-.8014-.33229-.3258-.09122-.7232-.13683-1.1923-.13683h-2.0329z"/><path d="m64.88 33.2452v-8.2551h-2.9461v-1.3196h7.5186v1.3196h-3.0688v8.2551z"/><path d="m53.8992 33.2446v-9.5593h3.3603c.8081 0 1.4679.1176 1.9794.3529.5217.2251.9053.5473 1.1508.9667s.3683.9053.3683 1.4577c0 .3785-.087.7467-.2609 1.1047-.1637.3478-.3989.6547-.7058.9207s-.67.4603-1.0894.5831l2.3476 4.1735h-1.6878l-2.2249-4.0508h-1.6725v4.0508zm1.5651-5.3397h1.918c.6137 0 1.0638-.1279 1.3502-.3836.2967-.2557.445-.5984.445-1.028 0-.2762-.0665-.5217-.1994-.7366-.1228-.225-.3172-.3989-.5831-.5216-.266-.133-.6087-.1995-1.0281-.1995h-1.9026z"/><path d="m50.8263 30.8196h-4.0969l.3069-1.1354h3.4831zm-1.964-4.327-2.4397 6.7514h-1.5498l3.6979-9.6668h.5831l3.6979 9.6668h-1.5958z"/><path d="m40.2498 33.428c-.3069 0-.5678-.1074-.7826-.3222-.2046-.2149-.3069-.4706-.3069-.7673 0-.2864.1023-.537.3069-.7518.2148-.2148.4757-.3222.7826-.3222.2864 0 .537.1074.7518.3222s.3223.4654.3223.7518c0 .2967-.1075.5524-.3223.7673-.2148.2148-.4654.3222-.7518.3222z"/></g></svg>